<mxfile host="app.diagrams.net" modified="2024-01-19T14:59:31.856Z" agent="Mozilla/5.0 (Windows NT 10.0; Win64; x64) AppleWebKit/537.36 (KHTML, like Gecko) Chrome/120.0.0.0 Safari/537.36" etag="mcW_masGOuSszCK1HvfR" version="22.1.21" type="github">
  <diagram name="Page-1" id="19d8dcba-68ad-dc05-1034-9cf7b2a963f6">
    <mxGraphModel dx="121" dy="759" grid="0" gridSize="10" guides="1" tooltips="1" connect="1" arrows="1" fold="1" page="1" pageScale="1" pageWidth="1100" pageHeight="850" background="none" math="0" shadow="0">
      <root>
        <mxCell id="0" />
        <mxCell id="1" parent="0" />
        <mxCell id="hl_QQEAn4s4oFegD9q-E-5" style="edgeStyle=orthogonalEdgeStyle;rounded=0;orthogonalLoop=1;jettySize=auto;html=1;exitX=0.5;exitY=1;exitDx=0;exitDy=0;entryX=0.5;entryY=0;entryDx=0;entryDy=0;" edge="1" parent="1" source="hl_QQEAn4s4oFegD9q-E-1" target="hl_QQEAn4s4oFegD9q-E-4">
          <mxGeometry relative="1" as="geometry" />
        </mxCell>
        <mxCell id="hl_QQEAn4s4oFegD9q-E-6" style="edgeStyle=orthogonalEdgeStyle;rounded=0;orthogonalLoop=1;jettySize=auto;html=1;exitX=0.5;exitY=1;exitDx=0;exitDy=0;entryX=0.5;entryY=0;entryDx=0;entryDy=0;" edge="1" parent="1" source="hl_QQEAn4s4oFegD9q-E-1" target="hl_QQEAn4s4oFegD9q-E-2">
          <mxGeometry relative="1" as="geometry" />
        </mxCell>
        <mxCell id="hl_QQEAn4s4oFegD9q-E-7" style="edgeStyle=orthogonalEdgeStyle;rounded=0;orthogonalLoop=1;jettySize=auto;html=1;exitX=0.5;exitY=1;exitDx=0;exitDy=0;" edge="1" parent="1" source="hl_QQEAn4s4oFegD9q-E-1" target="hl_QQEAn4s4oFegD9q-E-3">
          <mxGeometry relative="1" as="geometry" />
        </mxCell>
        <mxCell id="hl_QQEAn4s4oFegD9q-E-1" value="SUPRIANTO" style="rounded=1;whiteSpace=wrap;html=1;" vertex="1" parent="1">
          <mxGeometry x="1556" y="228" width="120" height="60" as="geometry" />
        </mxCell>
        <mxCell id="hl_QQEAn4s4oFegD9q-E-2" value="NASIPUDIN" style="rounded=1;whiteSpace=wrap;html=1;" vertex="1" parent="1">
          <mxGeometry x="1556" y="353" width="120" height="60" as="geometry" />
        </mxCell>
        <mxCell id="hl_QQEAn4s4oFegD9q-E-3" value="MUSHLIHUN" style="rounded=1;whiteSpace=wrap;html=1;" vertex="1" parent="1">
          <mxGeometry x="1761" y="353" width="120" height="60" as="geometry" />
        </mxCell>
        <mxCell id="hl_QQEAn4s4oFegD9q-E-4" value="ARI" style="rounded=1;whiteSpace=wrap;html=1;" vertex="1" parent="1">
          <mxGeometry x="1351" y="353" width="120" height="60" as="geometry" />
        </mxCell>
      </root>
    </mxGraphModel>
  </diagram>
</mxfile>
